<?xml version="1.0" encoding="utf-8"?>
<!-- Generator: Adobe Illustrator 24.1.2, SVG Export Plug-In . SVG Version: 6.00 Build 0)  -->
<svg version="1.1" id="Layer_1" xmlns="http://www.w3.org/2000/svg" xmlns:xlink="http://www.w3.org/1999/xlink" x="0px" y="0px"
	 viewBox="0 0 1492 180" enable-background="new 0 0 1492 180" xml:space="preserve">
<g>
	<path fill="#F2F2F2" d="M1489.48,172.6v-21h-14.19v-10.08H1467v-9.65h-10.51v-9h-9v9h-10.21v-9h-9v9h-7.47v-9h-10v9h-21.29v9.65
		h-10.06V57.07h-8.87V50.4h-5.92v-5.06h-10.94v5.06h-9.07v-2.53h-5.42v2.53h-2.37v6.67h-9.46v78.7h-5.92v-8h-4.68V41.64l-21.27,20
		V104h-4.8v7.15h-5.28V104h-7.15v7.15h-4.62v-7.45h-8.64v-8.64h-2v8.64h-21v-8.64h-2v8.64h-8.67v13.4h-20v33.74h-13.1v-33.92h-7.55
		v-9.37h-9.2v-7.22h-5.84v2.54h-4v14H1156v-11.11h-20v-6.84h-7.22V111h-13.82v11.52h-16.75v-5.79h13.59V104h-27.17v12.73h12.35v5.79
		h-14.21l0.23,22.61l-0.05,5.69h-0.18v3.66h-60.12v-25.59h-24.79v-11.82h-10.09v-23h-22.08v12.23H950.4v42.94h-9v-6.63h-9.9v-6.85
		h12V117.3H892v18.47h12v6.85h-12.3v6.63h-6.86v-86.2h-8.5V50.4h-27.48v12.65h-8.51v25.62H830.1V53.28h-29.23v52.79h-9.37V121
		h-12.75v30.59h-18v-7.06h-10.58v-7.31H763v-19.69h-54.86v19.68H721v7.31h-11v7.06h-3.3v2.49h-7.31V77.71h-8.19v-13.2h-26.54v13.2
		h-8.19v57.74h-5.79V88.67h-42.35v36.49h-13.56v10.31h-18.49v22.17h-5.56v-48.81h-10.8V101h-14.39v7.8h-4.21V101h-14.4v7.8h-9V62.41
		h-15.46v-4.15H510v-9.47h-40.44v9.47h7.07v15.79h-9.75L467,96.91V101h-7v-9.39h-7.1v-9.1h-17.3v9.1h-10.92V101h-3.85V73.57h-6.59
		v-4.06h-20v-6.84H387v10.9h-6.59V101h-15.3v61c-10.175-6.499-19.774-13.859-28.69-22v-10.79h-14v4.53
		c-13.95,5.84-30.14,8.93-47.15,8.94c-15.63,0.133-31.144-2.697-45.72-8.34v-5.13h-14v9.41c-9.632,8.956-20.081,16.991-31.21,24v-72
		h-49.76v18.21h-4.64v-7.54H117.5v-4.82h-5v-5.85h-7.73v5.85H96V90.8h-7.7v5.67H84v4.82h-6.93V48.37H71V37.06H35.71v11.31H29.6V124
		h-27v48.6H0v7.4h1492v-7.4L1489.48,172.6z M1045.74,172.6h-18.38c-0.022-5.18,4.16-9.398,9.34-9.42c0.007,0,0.013,0,0.02,0
		c4.997,0.103,8.996,4.182,9,9.18L1045.74,172.6z M1076.36,172.6H1058c-0.028-5.175,4.145-9.392,9.32-9.42c0.013,0,0.027,0,0.04,0
		c5,0.098,9.001,4.18,9,9.18V172.6z M1082.69,156.39v1.84h-60.12v-1.84H1082.69z M905.83,142.62v-6.85h23.85v6.85h-10.17v6.63h-5.91
		v-6.63H905.83z M722.83,144.52v-7.31h25.42v7.31h-10.82v7.06h-4.16v-7.06H722.83z M478.46,58.26h22.17v4.15h-11.32v11.64h-10.85
		V58.26z M365.08,172.6h-28.69v-3.91h28.69V172.6z M307,165.27v-22.89c2.14-0.533,4.25-1.113,6.33-1.74v24.63H307z M303.58,165.27
		h-6.38v-20.92c2.13-0.35,4.24-0.74,6.33-1.19L303.58,165.27z M293.83,165.27h-6.33v-19.71c2.127-0.187,4.237-0.42,6.33-0.7V165.27z
		 M284.08,165.27h-6.38v-19.2c2.12-0.04,4.23-0.127,6.33-0.26L284.08,165.27z M274.33,165.27H268v-19.36
		c2.09,0.1,4.21,0.16,6.33,0.18V165.27z M264.58,165.27h-6.38v-20.21c2.09,0.25,4.2,0.47,6.33,0.63L264.58,165.27z M254.83,165.27
		h-6.33v-21.79c2.08,0.42,4.19,0.79,6.33,1.11V165.27z M245.08,165.27h-6.38V141.1c2.08,0.6,4.19,1.14,6.33,1.64L245.08,165.27z
		 M322.44,168.69v3.91h-92.92v-3.91H322.44z M345,165.27v-13.48c2.14,1.7,4.34,3.37,6.58,5v8.46L345,165.27z M355,165.27v-6
		c2.887,2.04,5.853,4.04,8.9,6H355z M341.58,149v16.26h-5.19v-20.72C338.077,146.053,339.807,147.54,341.58,149z M322.39,165.26
		h-5.69v-25.72c1.933-0.667,3.83-1.367,5.69-2.1V165.26z M235.28,140.04v25.22h-5.76V138c1.89,0.74,3.8,1.42,5.76,2.05V140.04z
		 M215.52,165.26H209v-16.34c2.23-1.86,4.42-3.73,6.52-5.65V165.26z M199,165.26v-8.54c2.24-1.65,4.44-3.32,6.58-5v13.56L199,165.26
		z M195.58,159.19v6.07h-9c3.087-1.96,6.087-3.98,9-6.06V159.19z M215.52,168.68v3.91h-31.21v-3.91H215.52z"/>
	<path fill="#F2F2F2" d="M1231.47,80.06h42.22v15h-42.22V80.06z"/>
</g>
</svg>
